<svg id="Vrstva_1" data-name="Vrstva 1" xmlns="http://www.w3.org/2000/svg" viewBox="0 0 469.18 142.22"><defs><style>.cls-1,.cls-2{fill:#ee7203;}.cls-1,.cls-3{fill-rule:evenodd;}.cls-3,.cls-4{fill:#008bd2;}.cls-5{fill:#1d1d1b;}</style></defs><polygon class="cls-1" points="92 31.44 81.99 14.7 65.25 24.71 75.08 41.27 92 31.44"/><polygon class="cls-1" points="72.07 7.26 54.63 0.35 47.72 17.8 65.25 24.71 72.07 7.26"/><rect class="cls-2" x="212.76" y="229.05" width="18.79" height="18.79" transform="translate(-251.05 -142.75) rotate(-18.69)"/><polygon class="cls-1" points="3.7 28.25 19.11 39.14 29.92 23.82 14.59 12.93 3.7 28.25"/><rect class="cls-2" x="186.65" y="267.14" width="13.28" height="13.2" transform="translate(-188.15 -225.25) rotate(-0.38)"/><rect class="cls-2" x="198.31" y="301.03" width="7.39" height="7.39" transform="translate(-344.92 17.74) rotate(-46.94)"/><rect class="cls-2" x="190.06" y="287.15" width="9.12" height="9.31" transform="translate(-288.37 -121.9) rotate(-24.05)"/><polygon class="cls-3" points="39.22 64.29 49.31 81.03 66.05 71.02 56.13 54.47 39.22 64.29"/><polygon class="cls-3" points="59.15 88.47 76.58 95.38 83.5 77.94 66.05 71.03 59.15 88.47"/><rect class="cls-4" x="272.36" y="300.96" width="18.79" height="18.79" transform="matrix(0.95, -0.32, 0.32, 0.95, -270.94, -119.89)"/><polygon class="cls-3" points="127.52 67.39 112.19 56.59 101.29 71.91 116.62 82.72 127.52 67.39"/><rect class="cls-4" x="303.99" y="268.55" width="13.28" height="13.28" transform="translate(-188.18 -224.46) rotate(-0.38)"/><polygon class="cls-3" points="114.05 11.25 109 16.56 114.32 21.7 119.45 16.29 114.05 11.25"/><polygon class="cls-3" points="128.58 32.24 120.25 36.05 116.44 27.45 124.76 23.74 128.58 32.24"/><path class="cls-1" d="M646.29,310.82l-26.71,0c-4.6-6.64-7.79-11.15-12.4-17.8l12.93-12.84a9.25,9.25,0,0,0,0-13.11,9.35,9.35,0,0,0-13.19,0L596,277.9a3.07,3.07,0,0,1-1.16.53,5.11,5.11,0,0,1-1.06-.36V253.19a10,10,0,0,0-14.52-8.86,7.76,7.76,0,0,0-2.75,1.95,6.11,6.11,0,0,0-1.51,2.3,9.33,9.33,0,0,0-1.15,4.61v57.39h-6.73V284.8C566,268,547,260.8,533.68,266.29v-13a10,10,0,0,0-19.93,0v57.56l-7-.08V284.71c-1.23-16.73-20.28-24-33.57-18.5V253.28a10,10,0,0,0-19.92,0v57.48H442.19c-2.3.08-2.66-1.25-2.56-2v-26h.08c12.22,0,12.49-17.27,0-17.27h-.08l-.1-12.13a10,10,0,0,0-19.92,0v12.39l-79.94-.06c-12.2,0-12.46,17.22,0,17.22l79.68-.24a3.18,3.18,0,0,1,.26,1.15s0,19.66.09,19.93v5.05c0,5.31,1.59,11.07,4.34,14.35a13.08,13.08,0,0,0,9.74,4.69l26.57-.18c3.8,0,6.81,0,9.83-2.48,2.12-1.77,3-4.78,3-7.44l.1-27.37a7.44,7.44,0,0,1,14.88,0v29.5a7.31,7.31,0,0,0,2.39,5.49c1.86,1.95,4.51,2.21,7.17,2.21h27a10.2,10.2,0,0,0,5.94-2.39c2.12-1.68,3-4.69,3-7.36l.08-27.36a7.44,7.44,0,1,1,14.88,0V320a7.53,7.53,0,0,0,2.31,5.49,8.52,8.52,0,0,0,5.31,2.13l27.54.09a9.74,9.74,0,0,0,4-.8,6.44,6.44,0,0,0,3.72-2.83,10,10,0,0,0,2.3-6.29V306L606,323.42a9.5,9.5,0,0,0,8.85,4.16h31.49C658.49,327.58,658.75,310.82,646.29,310.82Z" transform="translate(-186.35 -226.53)"/><path class="cls-5" d="M300.12,350.49h-.18a6.76,6.76,0,0,0-5.13,2.23,8.32,8.32,0,0,0-2.07,5.83,7.81,7.81,0,0,0,2,5.57,7.08,7.08,0,0,0,5.14,2.15h.09a7,7,0,0,0,5.32-2.24,8.06,8.06,0,0,0,2.06-5.83,7.88,7.88,0,0,0-2.06-5.57,6.78,6.78,0,0,0-5.14-2.14m3.51,12.34a4.58,4.58,0,0,1-3.69,1.72,4.37,4.37,0,0,1-3.59-1.8,6.46,6.46,0,0,1-1.46-4.29,7.21,7.21,0,0,1,1.37-4.45,4.43,4.43,0,0,1,3.68-1.81H300a4.27,4.27,0,0,1,3.6,1.81,6.62,6.62,0,0,1,1.46,4.28A7,7,0,0,1,303.63,362.83Z" transform="translate(-186.35 -226.53)"/><path class="cls-5" d="M356.7,350.75a15.78,15.78,0,0,0-2.06-.09,36.93,36.93,0,0,0-4.46.26v15a26.19,26.19,0,0,0,3.77.17,14.05,14.05,0,0,0,2.75-.17,8.23,8.23,0,0,0,4.28-2A7.71,7.71,0,0,0,363.3,358a7.07,7.07,0,0,0-2.15-5.41,7.61,7.61,0,0,0-4.45-1.88m2.65,12.08a6.5,6.5,0,0,1-2.65,1.38,9.71,9.71,0,0,1-2.32.25,13.07,13.07,0,0,1-2.14-.08V352.46a18,18,0,0,1,2.49-.17,7.42,7.42,0,0,1,2,.17,6.24,6.24,0,0,1,2.74,1.29,5.6,5.6,0,0,1,1.63,4.37A6.45,6.45,0,0,1,359.35,362.83Z" transform="translate(-186.35 -226.53)"/><path class="cls-5" d="M340.41,350.49h-.17a6.82,6.82,0,0,0-5.15,2.23,8.35,8.35,0,0,0-2,5.83,7.77,7.77,0,0,0,2,5.57,7.12,7.12,0,0,0,5.23,2.15,7,7,0,0,0,5.31-2.24,8.06,8.06,0,0,0,2.06-5.83,7.88,7.88,0,0,0-2.06-5.57,6.77,6.77,0,0,0-5.14-2.14m3.51,12.34a4.46,4.46,0,0,1-3.68,1.72,4.41,4.41,0,0,1-3.61-1.8,6.51,6.51,0,0,1-1.45-4.29,7.21,7.21,0,0,1,1.37-4.45,4.44,4.44,0,0,1,3.69-1.81h.08A4.57,4.57,0,0,1,344,354a7.58,7.58,0,0,1-.09,8.82Z" transform="translate(-186.35 -226.53)"/><path class="cls-5" d="M326.35,350.67h-.86a29.28,29.28,0,0,0-4,.24V366h2.06v-6.09a7.23,7.23,0,0,0,1.71.17,5.28,5.28,0,0,0,1.12-.08,6.11,6.11,0,0,0,3.17-1.21,4.35,4.35,0,0,0,1.72-3.68,4.19,4.19,0,0,0-1.46-3.26,5.67,5.67,0,0,0-3.43-1.19m1.71,6.85a2.92,2.92,0,0,1-1.71.77,4.39,4.39,0,0,1-1.12.09,4.79,4.79,0,0,1-1.71-.18v-5.74a7.09,7.09,0,0,1,2-.17h.86a3.48,3.48,0,0,1,1.8.77,2.44,2.44,0,0,1,.94,2.15A2.68,2.68,0,0,1,328.06,357.52Z" transform="translate(-186.35 -226.53)"/><path class="cls-5" d="M314.69,357.35a7.13,7.13,0,0,1-2.49-1.29,2.18,2.18,0,0,1-.68-1.63,1.93,1.93,0,0,1,.77-1.54,3.37,3.37,0,0,1,2.15-.69,5.94,5.94,0,0,1,3.08.77l.51-1.71a6.92,6.92,0,0,0-3.51-.77,5.74,5.74,0,0,0-3.69,1.2,3.7,3.7,0,0,0-1.37,3,3.43,3.43,0,0,0,.94,2.57,8.42,8.42,0,0,0,3.18,1.8,5.34,5.34,0,0,1,2.31,1.21,2.36,2.36,0,0,1,.69,1.71,2.06,2.06,0,0,1-.86,1.8,3.5,3.5,0,0,1-2.4.68,6.93,6.93,0,0,1-3.69-.94l-.51,1.71a9.54,9.54,0,0,0,1.79.78,10.71,10.71,0,0,0,2.24.26,6.09,6.09,0,0,0,4.11-1.29,4,4,0,0,0,1.46-3.17,4.08,4.08,0,0,0-.94-2.66,7.39,7.39,0,0,0-3.09-1.8" transform="translate(-186.35 -226.53)"/><path class="cls-5" d="M216.19,350.67h-.86a30.11,30.11,0,0,0-4,.24V366h2.14v-6.09a6.52,6.52,0,0,0,1.63.17,4.88,4.88,0,0,0,1.12-.08,6.4,6.4,0,0,0,3.25-1.21,4.29,4.29,0,0,0,1.64-3.68,3.92,3.92,0,0,0-1.46-3.26,5.43,5.43,0,0,0-3.43-1.19m1.8,6.85a3.25,3.25,0,0,1-1.8.77,4,4,0,0,1-1,.09,4.39,4.39,0,0,1-1.72-.18v-5.74a6.55,6.55,0,0,1,1.89-.17h.86a4.2,4.2,0,0,1,1.89.77,3,3,0,0,1-.09,4.46Z" transform="translate(-186.35 -226.53)"/><polygon class="cls-5" points="185.09 123.1 188.01 120.36 185.52 120.36 184.91 121.13 183.37 123.1 184.91 123.1 185.09 123.1"/><polygon class="cls-5" points="101.68 130.56 94.05 130.56 94.05 124.22 91.99 124.22 91.99 139.48 94.05 139.48 94.05 132.36 101.68 132.36 101.68 139.48 103.82 139.48 103.82 124.22 101.68 124.22 101.68 130.56"/><polygon class="cls-5" points="83.33 120.36 80.76 120.36 78.7 123.1 80.41 123.1 83.33 120.36"/><polygon class="cls-5" points="373.52 123.1 376.44 120.36 373.94 120.36 373.35 121.13 371.81 123.1 373.35 123.1 373.52 123.1"/><polygon class="cls-5" points="0 126.01 4.8 126.01 4.8 139.48 6.86 139.48 6.86 126.01 11.74 126.01 11.74 124.22 0 124.22 0 126.01"/><polygon class="cls-5" points="429.67 120.36 427.19 120.36 425.04 123.1 426.75 123.1 429.67 120.36"/><polygon class="cls-5" points="198.81 123.1 199.23 123.1 201.63 120.36 199.92 120.36 198.81 121.73 198.55 122.07 197 120.36 195.29 120.36 197.69 123.1 198.81 123.1"/><path class="cls-5" d="M256.39,357.09c0,2.75.09,4.8.17,6.26a42,42,0,0,0-2.82-5l-5-7.62h-2.39V366h2v-6.52c0-2.74,0-4.8-.09-6.25.77,1.45,1.72,3.16,3,5.13l5,7.64h2.15V350.75h-2Z" transform="translate(-186.35 -226.53)"/><polygon class="cls-5" points="77.59 132.36 83.76 132.36 83.76 130.64 77.59 130.64 77.59 125.92 84.1 125.92 84.1 124.22 75.53 124.22 75.53 139.48 84.45 139.48 84.45 137.76 77.59 137.76 77.59 132.36"/><path class="cls-5" d="M371.27,350.75H370L364.66,366h2.24l1.62-4.72H374l1.7,4.72H378l-5.3-15.26Zm0,8.92H369a71.73,71.73,0,0,0,2.22-7.13l.09.18c.25.94,1,3.26,2.31,6.95Z" transform="translate(-186.35 -226.53)"/><polygon class="cls-5" points="39.52 132.36 45.69 132.36 45.69 130.64 39.52 130.64 39.52 125.92 46.04 125.92 46.04 124.22 37.47 124.22 37.47 139.48 46.38 139.48 46.38 137.76 39.52 137.76 39.52 132.36"/><polygon class="cls-5" points="51.1 124.21 48.95 124.21 48.95 139.48 57.78 139.48 57.78 137.68 51.1 137.68 51.1 124.21"/><polygon class="cls-5" points="15.52 132.36 21.69 132.36 21.69 130.64 15.52 130.64 15.52 125.92 22.03 125.92 22.03 124.22 13.46 124.22 13.46 139.48 22.37 139.48 22.37 137.76 15.52 137.76 15.52 132.36"/><polygon class="cls-5" points="424.01 132.36 430.1 132.36 430.1 130.64 424.01 130.64 424.01 125.92 430.44 125.92 430.44 124.22 421.87 124.22 421.87 139.48 430.78 139.48 430.78 137.76 424.01 137.76 424.01 132.36"/><path class="cls-5" d="M539.81,350.75h-2.66c-3.6,4.37-5.65,6.77-6,7.37v-7.37h-2.22V366h2.14v-5.75l1.54-1.71,5.14,7.46h2.48l-6.17-8.75Z" transform="translate(-186.35 -226.53)"/><path class="cls-5" d="M601.71,358.29c-.86,2.24-1.37,4.11-1.8,5.57-.34-1.11-.78-2.48-1.29-4.19l-2.91-8.92h-2.23L598.62,366h2.32l5.65-15.26h-2.23Z" transform="translate(-186.35 -226.53)"/><path class="cls-5" d="M585.33,350.49h-.09a6.82,6.82,0,0,0-5.22,2.23,8.36,8.36,0,0,0-2.06,5.83,7.88,7.88,0,0,0,2.06,5.57,6.78,6.78,0,0,0,5.14,2.15h.08a6.89,6.89,0,0,0,5.24-2.24,8.06,8.06,0,0,0,2.06-5.83,8.19,8.19,0,0,0-2-5.57,7.1,7.1,0,0,0-5.23-2.14m3.61,12.34a4.61,4.61,0,0,1-3.7,1.72h-.08a4.38,4.38,0,0,1-3.6-1.8,6.46,6.46,0,0,1-1.37-4.29,6.74,6.74,0,0,1,1.37-4.45,4.33,4.33,0,0,1,3.68-1.81,4.47,4.47,0,0,1,3.7,1.81,6.61,6.61,0,0,1,1.36,4.28A7.05,7.05,0,0,1,588.94,362.83Z" transform="translate(-186.35 -226.53)"/><path class="cls-5" d="M559.7,350.75h-1.28L553.1,366h2.23l1.54-4.72h5.57l1.71,4.72h2.23l-5.31-15.26Zm0,8.92h-2.32a73.71,73.71,0,0,0,2.24-7.13l.08.18c.26,1,1,3.26,2.31,6.95Z" transform="translate(-186.35 -226.53)"/><path class="cls-5" d="M548.55,358.64a3.94,3.94,0,0,0,2.15-1.46,3.87,3.87,0,0,0,.77-2.4,3.6,3.6,0,0,0-1.37-3,5.77,5.77,0,0,0-3.52-1.11h-.94a27.8,27.8,0,0,0-3.94.26V366h2v-6.6h2c.34,0,.61.08.86.08a5.85,5.85,0,0,1,1.2.6,4.94,4.94,0,0,1,1,2.31,18.71,18.71,0,0,0,1,3.61H552a30.62,30.62,0,0,1-1.21-4.2c-.43-1.63-1.11-2.75-2.23-3.17m-2-.86a2,2,0,0,1-.68.08h-2.15v-5.48a11.8,11.8,0,0,1,2.06-.18,2.26,2.26,0,0,1,.77.09,3.37,3.37,0,0,1,1.89.68,2.8,2.8,0,0,1-.09,4.12A2.86,2.86,0,0,1,546.58,357.78Z" transform="translate(-186.35 -226.53)"/><polygon class="cls-5" points="384.41 124.21 382.35 124.21 382.35 139.48 391.18 139.48 391.18 137.68 384.41 137.68 384.41 124.21"/><path class="cls-5" d="M647.66,359.67a6.21,6.21,0,0,1-1.72-.87,1.38,1.38,0,0,1-.42-1,1.2,1.2,0,0,1,.51-1,1.9,1.9,0,0,1,1.29-.43,4.72,4.72,0,0,1,2.39.69l.52-1.55a5.86,5.86,0,0,0-2.83-.68,4.16,4.16,0,0,0-2.83.94,3,3,0,0,0-1.11,2.32c0,1.37,1,2.4,3,3.08a5.63,5.63,0,0,1,1.64.86,1.32,1.32,0,0,1,.43,1.11,1.56,1.56,0,0,1-.52,1.2,2.71,2.71,0,0,1-1.55.43,5.66,5.66,0,0,1-2.82-.86l-.43,1.63a6.37,6.37,0,0,0,3.17.78,4.82,4.82,0,0,0,3.08-1,2.77,2.77,0,0,0,1.12-2.39,2.66,2.66,0,0,0-.68-2,5.06,5.06,0,0,0-2.23-1.28" transform="translate(-186.35 -226.53)"/><path class="cls-5" d="M618.34,368.75l1.54-.09a27.19,27.19,0,0,0,2.14-5.57l-2.31.17a27.4,27.4,0,0,1-1.37,5.49" transform="translate(-186.35 -226.53)"/><path class="cls-5" d="M654.94,363.69a1.44,1.44,0,0,0-2.05,0,1.58,1.58,0,0,0-.35,1.11,1.35,1.35,0,0,0,.35,1,1.41,1.41,0,0,0,2.05,0,1.35,1.35,0,0,0,.35-1,1.44,1.44,0,0,0-.35-1.11" transform="translate(-186.35 -226.53)"/><path class="cls-5" d="M635.83,359.41a5,5,0,0,0-1-3.44,4.37,4.37,0,0,0-3.26-1.19h-.08a6.38,6.38,0,0,0-3.69,1l.42,1.37a6.07,6.07,0,0,1,3-.86h.27a2.34,2.34,0,0,1,1.62.69,2.41,2.41,0,0,1,.68,1.79V359a17.2,17.2,0,0,0-2.3.18,7.33,7.33,0,0,0-2.75.94,3.24,3.24,0,0,0-1.72,3,2.83,2.83,0,0,0,1,2.23,3.44,3.44,0,0,0,2.49.95c.34,0,.68-.09,1-.09a4.24,4.24,0,0,0,2.39-1.55l.27,1.38H636a20.06,20.06,0,0,1-.17-2.66Zm-2.07,2.83A2.28,2.28,0,0,1,633,364a2.65,2.65,0,0,1-1.54.68c-.18,0-.35.09-.52.09a1.81,1.81,0,0,1-1.29-.51,1.89,1.89,0,0,1-.6-1.38,1.84,1.84,0,0,1,1.12-1.71,3,3,0,0,1,1.29-.51,15.28,15.28,0,0,1,2.3-.17Z" transform="translate(-186.35 -226.53)"/><path class="cls-5" d="M640,363.26a1.45,1.45,0,0,0-1,.43,1.57,1.57,0,0,0-.35,1.12,1.39,1.39,0,0,0,.35,1,1.45,1.45,0,0,0,2.06,0,1.48,1.48,0,0,0,.42-1,1.51,1.51,0,0,0-.42-1.12,1.46,1.46,0,0,0-1-.43" transform="translate(-186.35 -226.53)"/><path class="cls-5" d="M517.78,352.29a7.79,7.79,0,0,1,3.25.6l.52-1.71a9.7,9.7,0,0,0-3.86-.69,8.49,8.49,0,0,0-6,2.23,8.12,8.12,0,0,0-2.23,5.83,7.26,7.26,0,0,0,2.15,5.57,7.6,7.6,0,0,0,5.65,2.15,9.33,9.33,0,0,0,4.2-.78l-.34-1.63a8.17,8.17,0,0,1-3.43.6,5.94,5.94,0,0,1-4.46-1.63,7.07,7.07,0,0,1,.09-8.92,6,6,0,0,1,4.46-1.62" transform="translate(-186.35 -226.53)"/><rect class="cls-5" x="243.81" y="124.21" width="2.14" height="15.26"/><path class="cls-5" d="M423.65,358.29c-.77,2.24-1.37,4.11-1.8,5.57a42.63,42.63,0,0,0-1.29-4.19l-2.83-8.92h-2.31L420.56,366H423l5.58-15.26H426.3Z" transform="translate(-186.35 -226.53)"/><polygon class="cls-5" points="243.72 123.1 245.44 123.1 248.35 120.36 245.87 120.36 243.72 123.1"/><path class="cls-5" d="M387.13,358.64a4.27,4.27,0,0,0,2.14-1.46,4,4,0,0,0-.6-5.41,5.76,5.76,0,0,0-3.51-1.11h-1a27.91,27.91,0,0,0-3.94.26V366h2.06v-6.6h2c.26,0,.6.08.86.08a3.74,3.74,0,0,1,1.11.6,4.19,4.19,0,0,1,1.12,2.31,13.55,13.55,0,0,0,1,3.61h2.14a32.34,32.34,0,0,1-1.21-4.2,4.35,4.35,0,0,0-2.22-3.17m-2-.86a2,2,0,0,1-.69.08h-2.14v-5.48a11.71,11.71,0,0,1,2.06-.18,2.29,2.29,0,0,1,.77.09,3.39,3.39,0,0,1,1.89.68,2.37,2.37,0,0,1,.85,2.06,2.62,2.62,0,0,1-.94,2.06A3.09,3.09,0,0,1,385.16,357.78Z" transform="translate(-186.35 -226.53)"/><path class="cls-5" d="M397.68,357.35a7,7,0,0,1-2.49-1.29,2.19,2.19,0,0,1-.69-1.63,2,2,0,0,1,.77-1.54,3.22,3.22,0,0,1,2.15-.69,6.12,6.12,0,0,1,3.08.77l.52-1.71a7,7,0,0,0-3.52-.77,5.54,5.54,0,0,0-3.68,1.2,3.75,3.75,0,0,0-1.46,3,3.46,3.46,0,0,0,1,2.57,8.29,8.29,0,0,0,3.17,1.8,5.79,5.79,0,0,1,2.31,1.21,2.36,2.36,0,0,1,.69,1.71,2.27,2.27,0,0,1-.86,1.8,3.5,3.5,0,0,1-2.4.68,6.9,6.9,0,0,1-3.68-.94l-.52,1.71a9.38,9.38,0,0,0,1.8.78,10.55,10.55,0,0,0,2.23.26,6.27,6.27,0,0,0,4.12-1.29,4.21,4.21,0,0,0,.51-5.83,7.91,7.91,0,0,0-3.08-1.8" transform="translate(-186.35 -226.53)"/><polygon class="cls-5" points="216.3 126.01 221.09 126.01 221.09 139.48 223.24 139.48 223.24 126.01 227.95 126.01 227.95 124.22 216.3 124.22 216.3 126.01"/><polygon class="cls-5" points="264.13 130.56 256.5 130.56 256.5 124.22 254.35 124.22 254.35 139.48 256.5 139.48 256.5 132.36 264.13 132.36 264.13 139.48 266.19 139.48 266.19 124.22 264.13 124.22 264.13 130.56"/><path class="cls-5" d="M489.66,350.75a16.4,16.4,0,0,0-2.14-.09,36.69,36.69,0,0,0-4.38.26v15a25.71,25.71,0,0,0,3.78.17,14.41,14.41,0,0,0,2.74-.17,8.3,8.3,0,0,0,4.29-2,7.74,7.74,0,0,0,2.31-5.91,7.06,7.06,0,0,0-2.14-5.41,7.64,7.64,0,0,0-4.46-1.88m2.66,12.08a7.18,7.18,0,0,1-2.66,1.38,10.68,10.68,0,0,1-2.31.25,13.15,13.15,0,0,1-2.15-.08V352.46a18.22,18.22,0,0,1,2.49-.17,7.42,7.42,0,0,1,2,.17,6.7,6.7,0,0,1,2.74,1.29,5.6,5.6,0,0,1,1.63,4.37A6.49,6.49,0,0,1,492.32,362.83Z" transform="translate(-186.35 -226.53)"/><polygon class="cls-5" points="314.54 132.36 320.71 132.36 320.71 130.64 314.54 130.64 314.54 125.92 321.05 125.92 321.05 124.22 312.48 124.22 312.48 139.48 321.4 139.48 321.4 137.76 314.54 137.76 314.54 132.36"/><path class="cls-5" d="M462.91,358.64a4.27,4.27,0,0,0,2.14-1.46,3.82,3.82,0,0,0,.78-2.4,3.87,3.87,0,0,0-1.37-3,5.77,5.77,0,0,0-3.52-1.11H460a27.8,27.8,0,0,0-3.94.26V366h2.05v-6.6h2c.26,0,.61.08.86.08a3.8,3.8,0,0,1,1.12.6,4.26,4.26,0,0,1,1.11,2.31,13.55,13.55,0,0,0,1,3.61h2.14a31.41,31.41,0,0,1-1.2-4.2,4.36,4.36,0,0,0-2.23-3.17m-2-.86a2,2,0,0,1-.68.08h-2.15v-5.48a11.8,11.8,0,0,1,2.06-.18,2.26,2.26,0,0,1,.77.09,3.39,3.39,0,0,1,1.89.68,2.8,2.8,0,0,1-.09,4.12A3.09,3.09,0,0,1,460.94,357.78Z" transform="translate(-186.35 -226.53)"/><path class="cls-5" d="M474.14,350.75h-1.2L467.55,366h2.22l1.63-4.72h5.49L478.6,366h2.23l-5.31-15.26Zm0,8.92h-2.31c1.2-3.52,2-5.84,2.23-7.13l.08.18c.26,1,1,3.26,2.32,6.95Z" transform="translate(-186.35 -226.53)"/></svg>