<?xml version="1.0" standalone="no"?>
<!DOCTYPE svg PUBLIC "-//W3C//DTD SVG 20010904//EN"
 "http://www.w3.org/TR/2001/REC-SVG-20010904/DTD/svg10.dtd">
<svg version="1.0" xmlns="http://www.w3.org/2000/svg"
 width="250.000000pt" height="250.000000pt" viewBox="0 0 250.000000 250.000000"
 preserveAspectRatio="xMidYMid meet">

<g transform="translate(0.000000,250.000000) scale(0.100000,-0.100000)"
fill="#000000" stroke="none">
<path d="M1370 2204 c-14 -2 -62 -9 -108 -16 -79 -11 -121 -28 -69 -28 13 0
49 -8 79 -19 322 -111 598 -433 732 -856 14 -44 26 -88 26 -97 0 -10 2 -18 5
-18 12 0 84 40 90 50 8 12 -10 209 -36 395 -21 153 -54 273 -93 338 -83 143
-272 231 -536 250 -36 3 -76 3 -90 1z"/>
<path d="M955 2076 c-109 -51 -274 -211 -343 -335 l-22 -39 32 -7 c376 -71
668 -179 903 -333 92 -61 207 -178 237 -242 26 -56 29 -57 126 -18 60 25 60
20 17 159 -46 147 -131 314 -227 444 -140 189 -330 331 -501 376 -98 25 -161
24 -222 -5z"/>
<path d="M2120 1889 c0 -3 9 -32 20 -63 21 -63 55 -285 66 -438 4 -54 10 -98
14 -98 14 0 72 73 91 114 10 23 19 55 19 72 0 34 -28 123 -62 194 -33 69 -147
238 -148 219z"/>
<path d="M527 1548 c-8 -29 -21 -81 -28 -116 -11 -59 -15 -66 -53 -89 -48 -30
-99 -76 -129 -117 -20 -28 -41 -116 -27 -116 3 0 20 15 38 33 17 18 56 46 87
62 60 33 75 28 75 -24 0 -13 5 -52 11 -86 10 -60 12 -62 62 -92 101 -59 156
-68 417 -68 240 1 321 10 545 60 175 39 174 38 126 108 -137 199 -491 373
-968 477 -136 29 -136 29 -156 -32z"/>
<path d="M2352 1331 c-2 -16 -78 -111 -99 -124 -22 -13 -15 -75 18 -153 17
-41 35 -74 39 -74 19 0 52 214 47 301 -2 35 -4 58 -5 50z"/>
<path d="M170 1110 c-21 -38 -25 -58 -25 -130 0 -75 3 -91 27 -132 55 -92 152
-148 313 -180 83 -16 125 -19 250 -14 296 10 585 77 866 200 92 41 344 175
328 176 -3 0 -59 -20 -125 -44 -223 -82 -404 -130 -609 -163 -83 -13 -169 -17
-355 -17 -219 0 -255 3 -334 22 -146 36 -217 75 -273 149 -23 29 -29 50 -33
107 l-5 71 -25 -45z"/>
<path d="M2108 1075 l-46 -36 -5 -147 c-6 -157 -23 -244 -69 -339 l-25 -52 31
22 c82 58 199 196 251 295 l27 51 -36 58 c-20 32 -45 86 -57 121 -11 34 -22
62 -23 62 -2 0 -23 -16 -48 -35z"/>
<path d="M1889 917 c-65 -41 -67 -43 -73 -92 -9 -65 -64 -177 -118 -241 -83
-98 -208 -180 -353 -231 l-50 -18 105 -3 c231 -7 390 52 464 171 51 82 101
296 94 404 l-3 52 -66 -42z"/>
<path d="M1650 777 c-199 -109 -513 -207 -750 -235 l-65 -7 50 -37 c28 -20 79
-51 115 -69 61 -30 68 -31 160 -27 77 4 109 10 172 36 161 65 287 170 347 291
18 34 31 66 29 70 -2 5 -28 -5 -58 -22z"/>
</g>
</svg>
