<?xml version="1.0" standalone="no"?>
<!DOCTYPE svg PUBLIC "-//W3C//DTD SVG 20010904//EN"
 "http://www.w3.org/TR/2001/REC-SVG-20010904/DTD/svg10.dtd">
<svg version="1.0" xmlns="http://www.w3.org/2000/svg"
 width="500.000000pt" height="500.000000pt" viewBox="0 0 500.000000 500.000000"
 preserveAspectRatio="xMidYMid meet">

<g transform="translate(0.000000,500.000000) scale(0.100000,-0.100000)"
fill="#000000" stroke="none">
<path d="M1563 4989 c-284 -11 -443 -36 -628 -96 -395 -129 -699 -433 -828
-828 -91 -280 -107 -506 -107 -1565 0 -1059 16 -1285 107 -1565 129 -395 433
-699 828 -828 280 -91 506 -107 1565 -107 866 0 1166 13 1380 56 495 102 864
422 1013 879 91 279 107 513 107 1565 0 694 -11 1074 -36 1252 -48 348 -170
611 -386 827 -150 150 -318 252 -529 319 -186 60 -314 78 -649 92 -272 11
-1553 11 -1837 -1z m1815 -449 c129 -6 282 -17 340 -26 464 -68 738 -352 802
-830 20 -151 30 -538 30 -1184 0 -693 -11 -1050 -35 -1216 -68 -458 -341 -731
-799 -799 -166 -24 -523 -35 -1216 -35 -646 0 -1033 10 -1184 30 -478 64 -762
337 -830 800 -29 193 -39 607 -33 1420 3 454 10 823 17 890 30 312 105 501
260 661 194 199 408 270 864 289 276 11 1521 11 1784 0z"/>
<path d="M3699 4097 c-276 -143 -176 -558 135 -558 117 0 209 55 263 160 28
54 33 73 33 135 0 172 -125 296 -297 296 -61 0 -80 -5 -134 -33z"/>
<path d="M2276 3764 c-258 -47 -493 -170 -681 -359 -150 -150 -244 -300 -310
-498 -46 -139 -65 -256 -65 -407 0 -347 128 -658 370 -900 151 -152 306 -249
500 -314 142 -47 258 -66 410 -66 350 0 659 128 905 375 151 151 244 301 310
498 46 139 65 256 65 407 0 350 -127 656 -375 905 -190 191 -425 314 -689 360
-110 19 -332 18 -440 -1z m439 -458 c33 -9 106 -39 163 -67 167 -83 294 -216
378 -392 56 -120 69 -184 69 -347 0 -164 -13 -227 -71 -349 -81 -172 -213
-308 -378 -391 -145 -72 -202 -85 -376 -85 -163 0 -227 13 -347 69 -99 47
-177 103 -249 178 -74 76 -114 134 -159 231 -58 121 -70 183 -70 352 0 129 3
160 23 225 96 304 338 526 643 590 67 14 304 5 374 -14z"/>
</g>
</svg>
