<?xml version="1.0" standalone="no"?>
<!DOCTYPE svg PUBLIC "-//W3C//DTD SVG 20010904//EN"
 "http://www.w3.org/TR/2001/REC-SVG-20010904/DTD/svg10.dtd">
<svg version="1.0" xmlns="http://www.w3.org/2000/svg"
 width="190.000000pt" height="190.000000pt" viewBox="0 0 190.000000 190.000000"
 preserveAspectRatio="xMidYMid meet">

<g transform="translate(0.000000,190.000000) scale(0.100000,-0.100000)"
fill="#000000" stroke="none">
<path d="M860 1705 c-30 -32 -38 -124 -21 -230 l10 -69 -42 -53 c-53 -68 -82
-116 -104 -173 -10 -28 -43 -73 -85 -116 -69 -73 -75 -83 -59 -100 6 -5 6 -38
-1 -86 -10 -69 -9 -85 9 -140 13 -40 18 -79 15 -106 -6 -56 16 -87 81 -118 76
-35 155 -33 225 6 40 21 61 28 83 23 23 -4 28 -10 24 -22 -4 -9 -9 -43 -12
-75 l-6 -59 39 31 c40 31 94 57 94 44 -1 -4 -7 -18 -15 -32 -23 -40 -19 -56 8
-36 23 17 48 29 84 40 20 7 21 5 10 -23 -14 -39 -5 -47 27 -26 15 10 43 23 64
31 28 10 31 13 14 14 -13 0 -37 -7 -53 -16 -42 -21 -45 -13 -12 26 l27 33 -39
-7 c-22 -4 -52 -14 -67 -22 -44 -23 -54 -16 -23 16 l29 30 -30 0 c-16 0 -49
-9 -73 -20 -24 -11 -46 -18 -49 -15 -7 7 18 90 38 123 12 20 46 44 102 72 46
22 100 54 120 70 41 33 99 144 97 188 -1 24 -2 23 -9 -8 -9 -35 -39 -95 -70
-136 -22 -29 -67 -58 -135 -84 -33 -13 -80 -41 -104 -62 -56 -49 -79 -54 -127
-30 -22 10 -61 25 -89 32 -71 19 -139 55 -164 87 -17 21 -21 38 -19 81 l3 53
50 17 c51 18 136 70 190 118 l30 26 -30 -18 c-16 -10 -63 -35 -104 -56 -74
-38 -75 -38 -95 -19 -12 10 -30 21 -40 23 -10 1 -28 15 -39 30 -27 36 -20 48
68 127 39 35 89 80 113 102 46 42 51 62 25 92 -17 18 -16 21 38 71 31 29 86
68 122 87 37 19 67 40 67 47 0 26 -52 114 -90 152 -44 44 -79 52 -87 20 -6
-22 -23 -27 -23 -7 0 17 21 43 40 49 36 12 112 -56 172 -153 34 -56 57 -69
126 -69 l47 -1 -100 -48 c-122 -60 -233 -154 -335 -286 -8 -11 30 23 85 75
198 189 349 266 477 245 l42 -8 -39 -34 -40 -34 40 16 c87 36 120 45 167 45
132 0 171 -99 109 -278 l-29 -83 29 -6 c32 -6 38 -18 14 -27 -8 -3 -15 -10
-15 -17 0 -7 13 -8 42 -4 35 6 40 5 35 -9 -8 -19 2 -20 25 -2 22 17 13 26 -26
26 -28 0 -29 1 -10 14 18 14 18 15 -11 21 -17 4 -35 8 -42 10 -8 3 -2 27 17
77 36 89 39 160 10 226 -34 77 -56 87 -190 87 -63 0 -121 4 -128 9 -8 4 -66
11 -130 15 l-116 6 -33 45 c-63 86 -117 143 -150 156 -43 18 -46 18 -73 -11z
m-60 -451 c0 -11 5 -14 16 -10 10 4 14 1 12 -6 -8 -23 -43 -15 -46 10 -2 12 1
22 7 22 6 0 11 -7 11 -16z m-25 -36 c6 -16 1 -26 -16 -39 -28 -21 -36 -9 -19
32 15 34 26 37 35 7z m-162 -334 c16 -21 17 -35 12 -89 -5 -45 -12 -65 -21
-65 -19 0 -29 54 -26 143 2 43 10 46 35 11z m60 -219 c27 -24 66 -43 112 -56
97 -28 115 -36 115 -53 0 -24 -66 -39 -142 -33 -98 8 -158 49 -158 106 0 20
20 71 28 71 2 0 22 -16 45 -35z"/>
<path d="M550 1633 c-148 -24 -290 -58 -435 -105 -105 -35 -95 2 -95 -338 0
-348 5 -383 80 -535 109 -220 316 -383 570 -448 169 -44 270 -53 402 -33 134
19 197 39 328 103 245 120 381 285 446 542 23 91 24 106 22 385 l-3 289 -70
23 c-96 32 -336 91 -442 110 -96 16 -266 24 -279 11 -16 -15 13 -25 91 -32
198 -16 459 -71 602 -125 l48 -18 0 -294 c0 -325 -2 -340 -73 -482 -84 -170
-206 -284 -400 -373 -307 -142 -625 -120 -921 65 -161 100 -272 249 -332 442
-22 71 -23 91 -24 360 l0 285 85 28 c170 57 379 101 543 113 80 5 97 10 97 23
0 13 -13 16 -78 17 -42 1 -115 -5 -162 -13z"/>
<path d="M735 1573 c-164 -13 -436 -70 -565 -117 l-65 -24 0 -263 c0 -298 3
-318 78 -469 34 -70 59 -102 137 -180 131 -131 250 -193 462 -240 146 -33 280
-24 456 30 81 25 91 31 66 41 -31 12 -78 9 -98 -6 -31 -24 -45 -18 -48 21 l-3
36 -42 -31 c-24 -17 -46 -31 -49 -31 -4 0 -4 20 -2 45 l5 45 -28 -21 c-15 -11
-37 -32 -49 -46 -13 -17 -24 -23 -30 -17 -12 12 -15 97 -5 142 8 40 -11 43
-44 8 -35 -37 -100 -52 -168 -36 -125 28 -193 79 -193 146 0 29 -4 34 -22 34
-13 0 -44 7 -69 14 -122 37 -211 112 -266 224 -37 74 -38 79 -38 186 0 100 3
117 28 170 32 68 131 173 194 205 126 64 286 66 402 7 l34 -18 -7 49 c-11 76
-17 103 -24 101 -4 -1 -25 -3 -47 -5z"/>
<path d="M1116 1556 c4 -9 36 -15 117 -19 62 -3 132 -13 156 -21 44 -16 81
-14 81 5 0 5 -3 9 -7 9 -5 0 -64 9 -133 20 -151 24 -222 26 -214 6z"/>
<path d="M1703 1422 c28 -61 30 -197 4 -260 l-17 -42 27 -11 c16 -5 38 -22 51
-37 l22 -27 -2 194 -3 194 -52 18 -51 17 21 -46z"/>
<path d="M434 1418 c-42 -38 -79 -101 -99 -165 -10 -34 -25 -28 -25 10 0 17
-3 42 -6 55 -11 40 -24 23 -24 -33 0 -53 -1 -55 -34 -69 -29 -12 -56 -41 -56
-60 0 -3 14 0 31 6 16 6 32 8 35 5 3 -3 -6 -31 -19 -63 -45 -109 -50 -130 -36
-171 l12 -37 17 65 c10 35 27 91 39 123 12 33 21 65 21 73 0 7 6 13 13 13 9 0
12 -31 12 -122 0 -139 22 -225 77 -305 26 -39 79 -83 100 -83 3 0 -9 31 -28
69 -57 115 -75 233 -66 419 3 52 29 36 57 -33 25 -62 54 -107 69 -109 5 -1 15
8 22 19 11 18 9 26 -16 67 -46 74 -42 82 33 75 34 -4 72 -9 85 -11 12 -3 22
-4 22 -3 0 1 4 16 9 33 l9 32 -80 10 c-44 5 -82 13 -85 16 -11 11 40 56 92 81
28 14 74 28 102 32 60 7 79 16 68 33 -9 14 -116 9 -176 -9 -50 -15 -116 -65
-141 -107 -11 -18 -26 -34 -34 -34 -16 0 -19 40 -5 68 7 13 51 106 69 145 10
20 -24 2 -64 -35z"/>
<path d="M1464 1418 c-17 -5 -44 -20 -59 -32 l-27 -22 53 -80 c30 -44 63 -102
74 -127 11 -26 25 -47 30 -47 16 0 63 47 82 83 12 22 17 56 18 104 0 65 -3 75
-26 99 -30 30 -94 40 -145 22z"/>
<path d="M840 1311 c0 -5 5 -13 10 -16 6 -3 10 -2 10 4 0 5 -4 13 -10 16 -5 3
-10 2 -10 -4z"/>
<path d="M1089 1230 l-24 -20 40 6 c22 3 53 1 69 -5 41 -16 43 -7 3 18 -43 26
-58 26 -88 1z"/>
<path d="M1073 1164 c-7 -3 -31 -33 -54 -67 l-41 -62 43 41 c43 40 45 41 71
25 23 -13 33 -14 59 -4 18 7 35 10 38 8 9 -10 -27 -37 -60 -45 l-34 -8 33 -1
c18 -1 44 6 58 15 31 21 74 98 44 79 -5 -3 -30 1 -55 10 -45 15 -79 18 -102 9z
m67 -36 c17 11 21 11 18 1 -9 -27 -36 -34 -57 -15 -11 10 -18 23 -15 28 3 5
12 1 19 -9 12 -16 17 -16 35 -5z"/>
<path d="M1246 1033 c-10 -13 -32 -33 -50 -44 -36 -22 -28 -26 13 -5 15 8 36
27 45 41 23 34 17 41 -8 8z"/>
<path d="M1302 1023 c-7 -23 -28 -63 -47 -88 -40 -51 -37 -56 11 -20 35 27 58
83 52 125 -2 21 -5 18 -16 -17z"/>
<path d="M863 873 c9 -2 23 -2 30 0 6 3 -1 5 -18 5 -16 0 -22 -2 -12 -5z"/>
<path d="M904 809 c21 -16 26 -29 26 -62 0 -31 3 -38 10 -27 5 8 10 25 10 36
0 27 -36 74 -57 74 -11 0 -7 -7 11 -21z"/>
</g>
</svg>
