<svg version="1.1" id="Layer_1" xmlns="http://www.w3.org/2000/svg" xmlns:xlink="http://www.w3.org/1999/xlink" x="0px" y="0px"
	 width="100%" viewBox="0 0 524 185" enable-background="new 0 0 524 185" xml:space="preserve">
<path fill="#000000" opacity="1.000000" stroke="none" 
	d="
M328.000000,186.000000 
	C218.666672,186.000000 109.833336,186.000000 1.000000,186.000000 
	C1.000000,124.333336 1.000000,62.666668 1.000000,1.000000 
	C175.666672,1.000000 350.333344,1.000000 525.000000,1.000000 
	C525.000000,62.666668 525.000000,124.333336 525.000000,186.000000 
	C459.500000,186.000000 394.000000,186.000000 328.000000,186.000000 
M129.966843,73.018089 
	C128.589005,69.345482 127.211159,65.672867 125.983727,61.240719 
	C124.114189,56.204308 122.244652,51.167900 120.388176,46.166668 
	C101.883049,46.166668 83.441391,46.166668 64.073830,46.011883 
	C56.049305,46.063492 48.024784,46.115097 39.111275,46.012280 
	C36.756443,46.012280 34.401611,46.012280 31.927059,46.012280 
	C32.027248,48.098015 32.096958,49.549274 32.011932,51.777821 
	C32.011932,55.737267 32.011932,59.696712 32.011932,64.018967 
	C41.143353,64.018967 49.873260,64.018967 59.166672,64.018967 
	C59.166672,87.255707 59.166672,110.127686 59.011879,133.915009 
	C59.011879,137.153229 59.011879,140.391434 59.011879,143.833344 
	C64.929688,143.833344 70.465019,143.833344 76.879387,143.987961 
	C78.947830,144.271545 80.262291,143.941467 80.051727,141.277603 
	C79.782173,137.867386 79.888809,134.427414 79.987938,130.135468 
	C79.936401,128.090225 79.884865,126.044983 79.988121,123.073807 
	C80.029221,103.397636 80.070320,83.721466 81.033798,64.003349 
	C88.689285,63.946674 96.344772,63.889999 104.430260,63.990837 
	C104.430260,63.990837 104.885307,64.042259 104.991882,64.822418 
	C107.383476,71.255615 109.775063,77.688820 112.033417,84.984215 
	C114.650711,92.003563 117.268013,99.022911 119.991264,106.739082 
	C120.716393,108.533401 121.441521,110.327721 122.031097,112.962067 
	C123.076454,115.788353 124.121803,118.614639 125.630074,122.088547 
	C127.258308,126.723236 128.725952,131.422226 130.549683,135.978668 
	C133.898865,144.346436 133.986313,144.311432 143.897675,143.987854 
	C146.931686,143.936356 149.965714,143.884842 153.799057,143.987686 
	C155.192856,143.061462 157.288803,142.442596 157.853149,141.153305 
	C159.801346,136.702652 161.215408,132.018173 163.016571,126.727425 
	C167.346375,114.608482 171.718018,102.504265 175.992783,90.365944 
	C179.427536,80.612892 182.745010,70.818535 186.805557,60.701187 
	C187.870163,56.596394 189.029007,52.511189 189.890793,48.364250 
	C190.010605,47.787628 188.666260,46.906727 187.078751,46.011948 
	C182.385941,46.063507 177.693146,46.115070 172.182693,46.012257 
	C171.127716,46.399719 169.419922,46.522327 169.135834,47.222538 
	C168.142319,49.671501 167.640167,52.319817 166.236679,55.251949 
	C165.546677,57.798531 164.856674,60.345112 163.962250,63.523689 
	C163.363724,65.349197 162.765198,67.174713 161.852371,69.686539 
	C160.569244,72.936447 159.230225,76.165573 158.013000,79.439987 
	C153.615005,91.270927 149.257965,103.117081 144.496857,114.992126 
	C144.496857,114.992126 144.108765,114.952400 144.007568,114.157425 
	C139.949356,102.291374 135.891144,90.425323 131.467178,77.991089 
	C130.922562,76.619934 130.377960,75.248787 129.966843,73.018089 
M458.036407,101.687157 
	C459.938232,96.763557 461.840088,91.839958 463.741913,86.916367 
	C464.106964,86.988243 464.472046,87.060120 464.837097,87.131996 
	C464.837097,105.955299 464.837097,124.778603 464.837097,143.797272 
	C471.791748,143.797272 478.194946,143.797272 484.636230,143.797272 
	C484.636230,111.091820 484.636230,78.577667 484.636230,45.999287 
	C476.776276,45.999287 469.276642,46.135349 461.786163,45.932907 
	C458.752747,45.850929 457.810638,46.984135 456.873260,49.820400 
	C450.085327,70.359566 443.008179,90.803253 435.982330,111.263336 
	C435.614258,112.335144 434.879944,113.281174 433.830078,115.151772 
	C432.944885,112.734077 432.440399,111.425339 431.984192,110.099976 
	C424.994873,89.794754 418.048401,69.474548 410.941498,49.210583 
	C410.488647,47.919262 408.830963,46.179714 407.684753,46.142097 
	C399.579895,45.876122 391.462250,46.000702 383.209808,46.000702 
	C383.209808,78.834122 383.209808,111.230103 383.209808,143.788177 
	C389.824280,143.788177 396.227570,143.788177 403.427429,143.788177 
	C403.427429,124.071167 403.427429,104.556442 403.427429,85.041725 
	C403.750214,85.032234 404.072998,85.022751 404.395782,85.013260 
	C411.072998,104.648567 417.750244,124.283875 424.454926,143.999985 
	C429.811951,143.999985 434.977478,143.816193 440.121399,144.069778 
	C443.146332,144.218918 444.193237,143.089035 445.109863,140.265350 
	C449.215942,127.616707 453.670868,115.081314 458.036407,101.687157 
M362.000000,131.290573 
	C362.000000,105.308060 362.000000,79.325546 362.000000,53.605221 
	C360.332092,52.656010 358.833160,51.987164 357.540955,51.037098 
	C350.221771,45.655697 342.042572,44.215759 333.120697,44.908413 
	C326.993408,45.384113 320.755432,45.466869 314.645203,44.892609 
	C304.961517,43.982498 296.185211,45.810059 288.582489,51.917328 
	C286.951416,53.227581 285.168945,55.588715 285.151703,57.481194 
	C284.924042,82.469177 284.989471,107.459953 285.031342,132.449951 
	C285.033417,133.691162 285.086761,135.660095 285.801300,136.057053 
	C291.470825,139.206772 297.095062,143.918854 303.135925,144.604797 
	C314.978455,145.949509 327.101257,144.592270 339.068359,145.172379 
	C345.032471,145.461502 349.756409,143.257187 354.611725,140.735825 
	C357.039124,139.475281 359.295105,137.884659 362.000000,136.213943 
	C362.000000,135.210388 362.000000,133.719742 362.000000,131.290573 
M250.226288,145.000000 
	C257.784668,145.196396 262.771912,139.655838 268.844757,136.557877 
	C269.488586,136.229431 269.936615,134.911942 269.948456,134.046082 
	C270.038696,127.449356 269.997925,120.850845 269.997925,114.262268 
	C262.730194,114.262268 255.994965,114.262268 248.869354,114.262268 
	C248.869354,118.593529 248.869354,122.676422 248.869354,126.742813 
	C238.407059,126.742813 228.341431,126.742813 218.240570,126.742813 
	C218.240570,105.427025 218.240570,84.369316 218.240570,63.234360 
	C228.548492,63.234360 238.614532,63.234360 249.072479,63.234360 
	C249.072479,67.533752 249.072479,71.616676 249.072479,75.769104 
	C256.203430,75.769104 262.937866,75.769104 269.999542,75.769104 
	C269.999542,69.085289 270.055450,62.626347 269.941589,56.170403 
	C269.923706,55.156544 269.406677,53.600502 268.661163,53.236973 
	C262.254150,50.112686 257.014984,44.595253 248.940048,44.894329 
	C237.632980,45.313118 226.298660,44.972679 214.976425,45.034885 
	C213.575287,45.042580 212.005234,45.206097 210.807388,45.846882 
	C206.165237,48.330185 201.641968,51.035702 197.095337,53.646473 
	C197.095337,81.351471 197.095337,108.981201 197.095337,136.089371 
	C205.845474,142.423523 214.844604,146.387955 225.826279,145.166245 
	C233.556503,144.306244 241.459595,145.000000 250.226288,145.000000 
z"/>
<path fill="#FEFEFE" opacity="1.000000" stroke="none" 
	d="
M458.018127,102.096100 
	C453.670868,115.081314 449.215942,127.616707 445.109863,140.265350 
	C444.193237,143.089035 443.146332,144.218918 440.121399,144.069778 
	C434.977478,143.816193 429.811951,143.999985 424.454926,143.999985 
	C417.750244,124.283875 411.072998,104.648567 404.395782,85.013260 
	C404.072998,85.022751 403.750214,85.032234 403.427429,85.041725 
	C403.427429,104.556442 403.427429,124.071167 403.427429,143.788177 
	C396.227570,143.788177 389.824280,143.788177 383.209808,143.788177 
	C383.209808,111.230103 383.209808,78.834122 383.209808,46.000702 
	C391.462250,46.000702 399.579895,45.876122 407.684753,46.142097 
	C408.830963,46.179714 410.488647,47.919262 410.941498,49.210583 
	C418.048401,69.474548 424.994873,89.794754 431.984192,110.099976 
	C432.440399,111.425339 432.944885,112.734077 433.830078,115.151772 
	C434.879944,113.281174 435.614258,112.335144 435.982330,111.263336 
	C443.008179,90.803253 450.085327,70.359566 456.873260,49.820400 
	C457.810638,46.984135 458.752747,45.850929 461.786163,45.932907 
	C469.276642,46.135349 476.776276,45.999287 484.636230,45.999287 
	C484.636230,78.577667 484.636230,111.091820 484.636230,143.797272 
	C478.194946,143.797272 471.791748,143.797272 464.837097,143.797272 
	C464.837097,124.778603 464.837097,105.955299 464.837097,87.131996 
	C464.472046,87.060120 464.106964,86.988243 463.741913,86.916367 
	C461.840088,91.839958 459.938232,96.763557 458.018127,102.096100 
z"/>
<path fill="#FEFEFE" opacity="1.000000" stroke="none" 
	d="
M152.999725,143.833344 
	C149.965714,143.884842 146.931686,143.936356 143.398560,143.555389 
	C142.186584,142.246857 141.560684,140.702911 140.747513,140.597000 
	C131.599197,139.405685 134.981903,129.044373 129.415283,125.320892 
	C130.659882,121.114479 128.383774,120.762840 125.167160,121.440918 
	C124.121803,118.614639 123.076454,115.788353 122.485268,112.447998 
	C123.505226,110.796135 124.733856,108.817146 124.529785,108.656342 
	C123.151070,107.569939 121.469139,106.868347 119.885307,106.042259 
	C117.268013,99.022911 114.650711,92.003563 112.487862,84.458534 
	C115.313843,82.726784 115.027306,81.369057 113.826996,79.196625 
	C112.054367,75.988380 110.023590,72.482880 109.781403,68.987656 
	C109.518105,65.187744 108.186584,64.055367 104.885307,64.042259 
	C104.885307,64.042259 104.430260,63.990837 104.167274,63.563213 
	C102.821220,60.644455 101.272324,59.527363 98.389771,60.626484 
	C97.308891,61.038628 95.847939,60.363731 94.556503,60.330376 
	C90.162613,60.216885 85.760643,60.044323 81.381096,60.269760 
	C80.894379,60.294815 80.531647,62.728603 80.111420,64.045296 
	C80.070320,83.721466 80.029221,103.397636 79.568741,123.582443 
	C74.814888,127.387840 74.922501,128.474899 79.833336,131.000275 
	C79.888809,134.427414 79.782173,137.867386 80.051727,141.277603 
	C80.262291,143.941467 78.947830,144.271545 76.439140,143.533890 
	C75.290161,141.517105 74.971230,139.054489 73.804512,138.549118 
	C69.027306,136.479797 64.981857,132.306427 59.166672,132.999664 
	C59.166672,110.127686 59.166672,87.255707 59.166672,64.018967 
	C49.873260,64.018967 41.143353,64.018967 32.011932,64.018967 
	C32.011932,59.696712 32.011932,55.737267 32.409988,51.447739 
	C36.916214,53.602512 39.468510,51.845570 40.000259,46.166702 
	C48.024784,46.115097 56.049305,46.063492 64.590607,46.454464 
	C66.960060,47.931190 68.782097,49.788086 70.670670,49.858425 
	C79.288170,50.179375 87.925758,50.092709 96.553284,49.962971 
	C101.728355,49.885147 106.902786,49.194836 112.068657,49.285332 
	C115.275711,49.341518 118.523178,49.785664 119.173241,54.398247 
	C119.682220,58.009708 121.400574,61.414688 125.833328,62.000252 
	C127.211159,65.672867 128.589005,69.345482 129.500305,73.548897 
	C128.510239,75.246895 127.986717,76.414093 127.463188,77.581284 
	C128.919769,77.907280 130.376358,78.233269 131.832947,78.559265 
	C135.891144,90.425323 139.949356,102.291374 143.744965,114.707642 
	C141.144608,117.271362 142.388474,119.011848 144.380432,119.698898 
	C145.415421,120.055885 147.884369,119.002655 148.253052,118.033737 
	C149.400375,115.018715 146.853683,115.110672 144.885452,114.957497 
	C149.257965,103.117081 153.615005,91.270927 158.013000,79.439987 
	C159.230225,76.165573 160.569244,72.936447 162.363281,69.297325 
	C164.195068,67.863571 165.515961,66.819038 166.836853,65.774506 
	C165.946793,64.813568 165.056717,63.852631 164.166656,62.891689 
	C164.856674,60.345112 165.546677,57.798531 166.788391,55.336967 
	C172.605927,54.403389 171.135056,49.264874 173.000336,46.166634 
	C177.693146,46.115070 182.385941,46.063507 187.528992,46.483932 
	C186.827164,50.362904 185.464218,53.720413 184.646301,57.205818 
	C184.387405,58.309116 185.584015,59.753967 186.114532,61.042511 
	C182.745010,70.818535 179.427536,80.612892 175.992783,90.365944 
	C171.718018,102.504265 167.346375,114.608482 162.495026,126.969604 
	C160.634415,128.042145 158.589172,128.570175 158.081299,129.756424 
	C156.121109,134.334702 154.651901,139.123184 152.999725,143.833344 
z"/>
<path fill="#FEFEFE" opacity="1.000000" stroke="none" 
	d="
M362.000000,131.759827 
	C362.000000,133.719742 362.000000,135.210388 362.000000,136.213943 
	C359.295105,137.884659 357.039124,139.475281 354.611725,140.735825 
	C349.756409,143.257187 345.032471,145.461502 339.068359,145.172379 
	C327.101257,144.592270 314.978455,145.949509 303.135925,144.604797 
	C297.095062,143.918854 291.470825,139.206772 285.801300,136.057053 
	C285.086761,135.660095 285.033417,133.691162 285.031342,132.449951 
	C284.989471,107.459953 284.924042,82.469177 285.151703,57.481194 
	C285.168945,55.588715 286.951416,53.227581 288.582489,51.917328 
	C296.185211,45.810059 304.961517,43.982498 314.645203,44.892609 
	C320.755432,45.466869 326.993408,45.384113 333.120697,44.908413 
	C342.042572,44.215759 350.221771,45.655697 357.540955,51.037098 
	C358.833160,51.987164 360.332092,52.656010 362.000000,53.605221 
	C362.000000,79.325546 362.000000,105.308060 362.000000,131.759827 
M313.560547,127.000015 
	C322.652710,127.000015 331.744904,127.000015 340.690613,127.000015 
	C340.690613,105.311188 340.690613,84.241310 340.690613,63.311852 
	C328.973633,63.311852 317.568207,63.311852 306.312531,63.311852 
	C306.312531,84.694511 306.312531,105.764084 306.312531,127.000015 
	C308.608307,127.000015 310.592590,127.000015 313.560547,127.000015 
z"/>
<path fill="#FEFEFE" opacity="1.000000" stroke="none" 
	d="
M249.755890,145.000000 
	C241.459595,145.000000 233.556503,144.306244 225.826279,145.166245 
	C214.844604,146.387955 205.845474,142.423523 197.095337,136.089371 
	C197.095337,108.981201 197.095337,81.351471 197.095337,53.646473 
	C201.641968,51.035702 206.165237,48.330185 210.807388,45.846882 
	C212.005234,45.206097 213.575287,45.042580 214.976425,45.034885 
	C226.298660,44.972679 237.632980,45.313118 248.940048,44.894329 
	C257.014984,44.595253 262.254150,50.112686 268.661163,53.236973 
	C269.406677,53.600502 269.923706,55.156544 269.941589,56.170403 
	C270.055450,62.626347 269.999542,69.085289 269.999542,75.769104 
	C262.937866,75.769104 256.203430,75.769104 249.072479,75.769104 
	C249.072479,71.616676 249.072479,67.533752 249.072479,63.234360 
	C238.614532,63.234360 228.548492,63.234360 218.240570,63.234360 
	C218.240570,84.369316 218.240570,105.427025 218.240570,126.742813 
	C228.341431,126.742813 238.407059,126.742813 248.869354,126.742813 
	C248.869354,122.676422 248.869354,118.593529 248.869354,114.262268 
	C255.994965,114.262268 262.730194,114.262268 269.997925,114.262268 
	C269.997925,120.850845 270.038696,127.449356 269.948456,134.046082 
	C269.936615,134.911942 269.488586,136.229431 268.844757,136.557877 
	C262.771912,139.655838 257.784668,145.196396 249.755890,145.000000 
z"/>
<path fill="#FEFEFE" opacity="1.000000" stroke="none" 
	d="
M125.908524,61.620483 
	C121.400574,61.414688 119.682220,58.009708 119.173241,54.398247 
	C118.523178,49.785664 115.275711,49.341518 112.068657,49.285332 
	C106.902786,49.194836 101.728355,49.885147 96.553284,49.962971 
	C87.925758,50.092709 79.288170,50.179375 70.670670,49.858425 
	C68.782097,49.788086 66.960060,47.931190 65.053558,46.531857 
	C83.441391,46.166668 101.883049,46.166668 120.388176,46.166668 
	C122.244652,51.167900 124.114189,56.204308 125.908524,61.620483 
z"/>
<path fill="#FEFEFE" opacity="1.000000" stroke="none" 
	d="
M59.089275,133.457336 
	C64.981857,132.306427 69.027306,136.479797 73.804512,138.549118 
	C74.971230,139.054489 75.290161,141.517105 75.999626,143.456573 
	C70.465019,143.833344 64.929688,143.833344 59.011879,143.833344 
	C59.011879,140.391434 59.011879,137.153229 59.089275,133.457336 
z"/>
<path fill="#FEFEFE" opacity="1.000000" stroke="none" 
	d="
M125.398621,121.764732 
	C128.383774,120.762840 130.659882,121.114479 129.415283,125.320892 
	C134.981903,129.044373 131.599197,139.405685 140.747513,140.597000 
	C141.560684,140.702911 142.186584,142.246857 142.949860,143.478119 
	C133.986313,144.311432 133.898865,144.346436 130.549683,135.978668 
	C128.725952,131.422226 127.258308,126.723236 125.398621,121.764732 
z"/>
<path fill="#FEFEFE" opacity="1.000000" stroke="none" 
	d="
M80.572609,64.024323 
	C80.531647,62.728603 80.894379,60.294815 81.381096,60.269760 
	C85.760643,60.044323 90.162613,60.216885 94.556503,60.330376 
	C95.847939,60.363731 97.308891,61.038628 98.389771,60.626484 
	C101.272324,59.527363 102.821220,60.644455 103.952271,63.484459 
	C96.344772,63.889999 88.689285,63.946674 80.572609,64.024323 
z"/>
<path fill="#FEFEFE" opacity="1.000000" stroke="none" 
	d="
M104.938599,64.432343 
	C108.186584,64.055367 109.518105,65.187744 109.781403,68.987656 
	C110.023590,72.482880 112.054367,75.988380 113.826996,79.196625 
	C115.027306,81.369057 115.313843,82.726784 112.554474,84.027435 
	C109.775063,77.688820 107.383476,71.255615 104.938599,64.432343 
z"/>
<path fill="#FEFEFE" opacity="1.000000" stroke="none" 
	d="
M153.399384,143.910522 
	C154.651901,139.123184 156.121109,134.334702 158.081299,129.756424 
	C158.589172,128.570175 160.634415,128.042145 162.403183,127.317268 
	C161.215408,132.018173 159.801346,136.702652 157.853149,141.153305 
	C157.288803,142.442596 155.192856,143.061462 153.399384,143.910522 
z"/>
<path fill="#FEFEFE" opacity="1.000000" stroke="none" 
	d="
M39.555767,46.089493 
	C39.468510,51.845570 36.916214,53.602512 32.487358,51.059097 
	C32.096958,49.549274 32.027248,48.098015 31.927059,46.012280 
	C34.401611,46.012280 36.756443,46.012280 39.555767,46.089493 
z"/>
<path fill="#FEFEFE" opacity="1.000000" stroke="none" 
	d="
M186.460052,60.871849 
	C185.584015,59.753967 184.387405,58.309116 184.646301,57.205818 
	C185.464218,53.720413 186.827164,50.362904 187.989471,46.561302 
	C188.666260,46.906727 190.010605,47.787628 189.890793,48.364250 
	C189.029007,52.511189 187.870163,56.596394 186.460052,60.871849 
z"/>
<path fill="#FEFEFE" opacity="1.000000" stroke="none" 
	d="
M172.591522,46.089447 
	C171.135056,49.264874 172.605927,54.403389 167.145721,55.157192 
	C167.640167,52.319817 168.142319,49.671501 169.135834,47.222538 
	C169.419922,46.522327 171.127716,46.399719 172.591522,46.089447 
z"/>
<path fill="#FEFEFE" opacity="1.000000" stroke="none" 
	d="
M144.691162,114.974808 
	C146.853683,115.110672 149.400375,115.018715 148.253052,118.033737 
	C147.884369,119.002655 145.415421,120.055885 144.380432,119.698898 
	C142.388474,119.011848 141.144608,117.271362 143.795563,115.105133 
	C144.108765,114.952400 144.496857,114.992126 144.691162,114.974808 
z"/>
<path fill="#FEFEFE" opacity="1.000000" stroke="none" 
	d="
M119.938286,106.390671 
	C121.469139,106.868347 123.151070,107.569939 124.529785,108.656342 
	C124.733856,108.817146 123.505226,110.796135 122.553040,112.027985 
	C121.441521,110.327721 120.716393,108.533401 119.938286,106.390671 
z"/>
<path fill="#FEFEFE" opacity="1.000000" stroke="none" 
	d="
M79.910637,130.567871 
	C74.922501,128.474899 74.814888,127.387840 79.491348,124.045410 
	C79.884865,126.044983 79.936401,128.090225 79.910637,130.567871 
z"/>
<path fill="#FEFEFE" opacity="1.000000" stroke="none" 
	d="
M164.064453,63.207687 
	C165.056717,63.852631 165.946793,64.813568 166.836853,65.774506 
	C165.515961,66.819038 164.195068,67.863571 162.520416,68.954163 
	C162.765198,67.174713 163.363724,65.349197 164.064453,63.207687 
z"/>
<path fill="#FEFEFE" opacity="1.000000" stroke="none" 
	d="
M131.650055,78.275177 
	C130.376358,78.233269 128.919769,77.907280 127.463188,77.581284 
	C127.986717,76.414093 128.510239,75.246895 129.433563,73.978668 
	C130.377960,75.248787 130.922562,76.619934 131.650055,78.275177 
z"/>
<path fill="#000000" opacity="1.000000" stroke="none" 
	d="
M313.068695,127.000015 
	C310.592590,127.000015 308.608307,127.000015 306.312531,127.000015 
	C306.312531,105.764084 306.312531,84.694511 306.312531,63.311852 
	C317.568207,63.311852 328.973633,63.311852 340.690613,63.311852 
	C340.690613,84.241310 340.690613,105.311188 340.690613,127.000015 
	C331.744904,127.000015 322.652710,127.000015 313.068695,127.000015 
z"/>
</svg>